<?xml version="1.0" standalone="no"?>
<!DOCTYPE svg PUBLIC "-//W3C//DTD SVG 20010904//EN"
 "http://www.w3.org/TR/2001/REC-SVG-20010904/DTD/svg10.dtd">
<svg version="1.0" xmlns="http://www.w3.org/2000/svg"
 width="144.000000pt" height="144.000000pt" viewBox="0 0 144.000000 144.000000"
 preserveAspectRatio="xMidYMid meet">

<g transform="translate(0.000000,144.000000) scale(0.100000,-0.100000)"
fill="#000000" stroke="none">
<path d="M603 1245 c-190 -52 -350 -229 -383 -425 -17 -102 -9 -166 29 -244
56 -115 155 -175 269 -163 127 13 191 80 217 226 19 111 49 161 117 195 139
70 299 2 328 -138 34 -167 -117 -350 -332 -401 -181 -42 -396 6 -523 117 l-48
42 18 -35 c28 -54 136 -153 204 -187 83 -42 158 -56 264 -49 78 4 98 9 170 45
185 92 299 272 301 476 0 67 -4 90 -26 137 -76 164 -226 226 -372 155 -77 -38
-103 -79 -123 -193 -8 -48 -24 -105 -36 -125 -72 -130 -288 -139 -377 -17 -57
79 -49 193 20 297 96 144 287 219 491 193 141 -17 190 -38 329 -138 l24 -18
-19 32 c-29 49 -113 127 -178 167 -102 60 -251 81 -364 51z"/>
</g>
</svg>
